# Blender 4.2.3 LTS
# www.blender.org
mtllib squCone.mtl
o Plane
v -1.000000 0.000000 1.000000
v 1.000000 0.000000 1.000000
v -1.000000 0.000000 -1.000000
v 1.000000 0.000000 -1.000000
v -1.000000 0.000000 -0.750000
v -1.000000 0.000000 -0.500000
v -1.000000 0.000000 -0.250000
v -1.000000 0.000000 0.000000
v -1.000000 0.000000 0.250000
v -1.000000 0.000000 0.500000
v -1.000000 0.000000 0.750000
v -0.750000 0.000000 1.000000
v -0.500000 0.000000 1.000000
v -0.250000 0.000000 1.000000
v 0.000000 0.000000 1.000000
v 0.250000 0.000000 1.000000
v 0.500000 0.000000 1.000000
v 0.750000 0.000000 1.000000
v 1.000000 0.000000 0.750000
v 1.000000 0.000000 0.500000
v 1.000000 0.000000 0.250000
v 1.000000 0.000000 0.000000
v 1.000000 0.000000 -0.250000
v 1.000000 0.000000 -0.500000
v 1.000000 0.000000 -0.750000
v 0.750000 0.000000 -1.000000
v 0.500000 0.000000 -1.000000
v 0.250000 0.000000 -1.000000
v 0.000000 0.000000 -1.000000
v -0.250000 0.000000 -1.000000
v -0.500000 0.000000 -1.000000
v -0.750000 0.000000 -1.000000
v -0.750000 0.000000 0.750000
v -0.500000 0.000000 0.750000
v -0.250000 0.000000 0.750000
v 0.000000 0.000000 0.750000
v 0.250000 0.000000 0.750000
v 0.500000 0.000000 0.750000
v 0.750000 0.000000 0.750000
v -0.750000 0.000000 0.500000
v -0.500000 0.000000 0.500000
v -0.250000 0.000000 0.500000
v 0.000000 0.000000 0.500000
v 0.250000 0.000000 0.500000
v 0.500000 0.000000 0.500000
v 0.750000 0.000000 0.500000
v -0.750000 0.000000 0.250000
v -0.500000 0.000000 0.250000
v -0.250000 0.000000 0.250000
v 0.000000 0.000000 0.250000
v 0.250000 0.000000 0.250000
v 0.500000 0.000000 0.250000
v 0.750000 0.000000 0.250000
v -0.750000 0.000000 0.000000
v -0.500000 0.000000 0.000000
v -0.250000 0.000000 0.000000
v 0.000000 0.000000 0.000000
v 0.250000 0.000000 0.000000
v 0.500000 0.000000 0.000000
v 0.750000 0.000000 0.000000
v -0.750000 0.000000 -0.250000
v -0.500000 0.000000 -0.250000
v -0.250000 0.000000 -0.250000
v 0.000000 0.000000 -0.250000
v 0.250000 0.000000 -0.250000
v 0.500000 0.000000 -0.250000
v 0.750000 0.000000 -0.250000
v -0.750000 0.000000 -0.500000
v -0.500000 0.000000 -0.500000
v -0.250000 0.000000 -0.500000
v 0.000000 0.000000 -0.500000
v 0.250000 0.000000 -0.500000
v 0.500000 0.000000 -0.500000
v 0.750000 0.000000 -0.500000
v -0.750000 0.000000 -0.750000
v -0.500000 0.000000 -0.750000
v -0.250000 0.000000 -0.750000
v 0.000000 0.000000 -0.750000
v 0.250000 0.000000 -0.750000
v 0.500000 0.000000 -0.750000
v 0.750000 0.000000 -0.750000
v -0.148194 -0.082274 0.436923
v -1.000000 0.000000 1.000000
v 1.000000 0.000000 1.000000
v -1.000000 0.000000 -1.000000
v 1.000000 0.000000 -1.000000
v -1.000000 0.000000 -0.750000
v -1.000000 0.000000 -0.500000
v -1.000000 0.000000 -0.250000
v -1.000000 0.000000 0.000000
v -1.000000 0.000000 0.250000
v -1.000000 0.000000 0.500000
v -1.000000 0.000000 0.750000
v -0.750000 0.000000 1.000000
v -0.500000 0.000000 1.000000
v -0.250000 0.000000 1.000000
v 0.000000 0.000000 1.000000
v 0.250000 0.000000 1.000000
v 0.500000 0.000000 1.000000
v 0.750000 0.000000 1.000000
v 1.000000 0.000000 0.750000
v 1.000000 0.000000 0.500000
v 1.000000 0.000000 0.250000
v 1.000000 0.000000 0.000000
v 1.000000 0.000000 -0.250000
v 1.000000 0.000000 -0.500000
v 1.000000 0.000000 -0.750000
v 0.750000 0.000000 -1.000000
v 0.500000 0.000000 -1.000000
v 0.250000 0.000000 -1.000000
v 0.000000 0.000000 -1.000000
v -0.250000 0.000000 -1.000000
v -0.500000 0.000000 -1.000000
v -0.750000 0.000000 -1.000000
v 0.000000 0.000000 0.000000
v -0.148194 -0.082274 0.436923
v -0.001807 1.998997 0.005328
v -0.001807 1.998997 0.005328
v -0.001807 1.998997 0.005328
v -0.001807 1.998997 0.005328
v -0.001807 1.998997 0.005328
v -0.001807 1.998997 0.005328
v -0.001807 1.998997 0.005328
v -0.001807 1.998997 0.005328
v -0.001807 1.998997 0.005328
v -0.001807 1.998997 0.005328
v -0.001807 1.998997 0.005328
v -0.001807 1.998997 0.005328
v -0.001807 1.998997 0.005328
v -0.001807 1.998997 0.005328
v -0.001807 1.998997 0.005328
v -0.001807 1.998997 0.005328
v -0.001807 1.998997 0.005328
v -0.001807 1.998997 0.005328
v -0.001807 1.998997 0.005328
v -0.001807 1.998997 0.005328
v -0.001807 1.998997 0.005328
v -0.001807 1.998997 0.005328
v -0.001807 1.998997 0.005328
v -0.001807 1.998997 0.005328
v -0.001807 1.998997 0.005328
v -0.001807 1.998997 0.005328
v -0.001807 1.998997 0.005328
v -0.001807 1.998997 0.005328
v -0.001807 1.998997 0.005328
v -0.001807 1.998997 0.005328
v -0.001807 1.998997 0.005328
v -0.001807 1.998997 0.005328
v -0.001807 1.998997 0.005328
v -0.001807 1.998997 0.005328
v -0.001807 1.998997 0.005328
v -0.001807 1.998997 0.005328
v -0.001807 1.998997 0.005328
v -0.001807 1.998997 0.005328
v -0.001807 1.998997 0.005328
v -0.001807 1.998997 0.005328
v -0.001807 1.998997 0.005328
v -0.001807 1.998997 0.005328
v -0.001807 1.998997 0.005328
v -0.001807 1.998997 0.005328
v -0.001807 1.998997 0.005328
v -0.001807 1.998997 0.005328
v -0.001807 1.998997 0.005328
v -0.001807 1.998997 0.005328
v -0.001807 1.998997 0.005328
v -0.001807 1.998997 0.005328
v -0.001807 1.998997 0.005328
v -0.001807 1.998997 0.005328
v -0.001807 1.998997 0.005328
v -0.001807 1.998997 0.005328
v -0.001807 1.998997 0.005328
v -0.001807 1.998997 0.005328
v -0.001807 1.998997 0.005328
v -0.001807 1.998997 0.005328
v -0.001807 1.998997 0.005328
v -0.001807 1.998997 0.005328
v -0.001807 1.998997 0.005328
v -0.001807 1.998997 0.005328
v -0.001807 1.998997 0.005328
v -0.001807 1.998997 0.005328
v -0.001807 1.998997 0.005328
v -0.001807 1.998997 0.005328
v -0.001807 1.998997 0.005328
v -0.001807 1.998997 0.005328
v -0.001807 1.998997 0.005328
v -0.001807 1.998997 0.005328
v -0.001807 1.998997 0.005328
v -0.001807 1.998997 0.005328
v -0.001807 1.998997 0.005328
v -0.001807 1.998997 0.005328
v -0.001807 1.998997 0.005328
v -0.001807 1.998997 0.005328
v -0.001807 1.998997 0.005328
v -0.001807 1.998997 0.005328
v -0.001807 1.998997 0.005328
v -0.001807 1.998997 0.005328
v -0.001807 1.998997 0.005328
v -0.001807 1.998997 0.005328
vn -0.0000 -1.0000 -0.0000
vn 0.8940 0.4480 -0.0000
vn -0.0000 0.4493 -0.8934
vn -0.8947 0.4467 -0.0000
vn -0.0000 0.4455 0.8953
vn -0.9470 -0.0000 -0.3212
vn -0.0000 1.0000 -0.0000
vn -1.0000 -0.0000 -0.0000
vn 1.0000 0.0002 -0.0000
vt 0.125000 0.125000
vt 0.125000 0.250000
vt 0.250000 0.250000
vt 0.250000 0.125000
vt 0.375000 0.250000
vt 0.375000 0.125000
vt 0.500000 0.250000
vt 0.500000 0.125000
vt 0.625000 0.250000
vt 0.625000 0.125000
vt 0.750000 0.250000
vt 0.750000 0.125000
vt 0.875000 0.250000
vt 0.875000 0.125000
vt 0.125000 0.375000
vt 0.250000 0.375000
vt 0.375000 0.375000
vt 0.500000 0.375000
vt 0.625000 0.375000
vt 0.750000 0.375000
vt 0.875000 0.375000
vt 0.125000 0.500000
vt 0.250000 0.500000
vt 0.375000 0.500000
vt 0.500000 0.500000
vt 0.625000 0.500000
vt 0.750000 0.500000
vt 0.875000 0.500000
vt 0.125000 0.625000
vt 0.250000 0.625000
vt 0.375000 0.625000
vt 0.500000 0.625000
vt 0.625000 0.625000
vt 0.750000 0.625000
vt 0.875000 0.625000
vt 0.125000 0.750000
vt 0.250000 0.750000
vt 0.375000 0.750000
vt 0.500000 0.750000
vt 0.625000 0.750000
vt 0.750000 0.750000
vt 0.875000 0.750000
vt 0.125000 0.875000
vt 0.250000 0.875000
vt 0.375000 0.875000
vt 0.500000 0.875000
vt 0.625000 0.875000
vt 0.750000 0.875000
vt 0.875000 0.875000
vt 0.000000 0.000000
vt 0.000000 0.125000
vt 0.125000 0.000000
vt 0.250000 0.000000
vt 0.375000 0.000000
vt 0.500000 0.000000
vt 0.625000 0.000000
vt 0.750000 0.000000
vt 0.875000 0.000000
vt 1.000000 0.125000
vt 1.000000 0.000000
vt 1.000000 0.250000
vt 1.000000 0.375000
vt 1.000000 0.500000
vt 1.000000 0.625000
vt 1.000000 0.750000
vt 1.000000 0.875000
vt 0.875000 1.000000
vt 1.000000 1.000000
vt 0.750000 1.000000
vt 0.625000 1.000000
vt 0.500000 1.000000
vt 0.375000 1.000000
vt 0.250000 1.000000
vt 0.125000 1.000000
vt 0.000000 0.875000
vt 0.000000 1.000000
vt 0.000000 0.750000
vt 0.000000 0.625000
vt 0.000000 0.500000
vt 0.000000 0.375000
vt 0.000000 0.250000
s 0
f 33/1/1 40/2/1 41/3/1 34/4/1
f 34/4/1 41/3/1 42/5/1 35/6/1
f 35/6/1 42/5/1 43/7/1 36/8/1
f 36/8/1 43/7/1 44/9/1 37/10/1
f 37/10/1 44/9/1 45/11/1 38/12/1
f 38/12/1 45/11/1 46/13/1 39/14/1
f 40/2/1 47/15/1 48/16/1 41/3/1
f 41/3/1 48/16/1 49/17/1 42/5/1
f 42/5/1 49/17/1 50/18/1 43/7/1
f 43/7/1 50/18/1 51/19/1 44/9/1
f 44/9/1 51/19/1 52/20/1 45/11/1
f 45/11/1 52/20/1 53/21/1 46/13/1
f 47/15/1 54/22/1 55/23/1 48/16/1
f 48/16/1 55/23/1 56/24/1 49/17/1
f 49/17/1 56/24/1 57/25/1 50/18/1
f 50/18/1 57/25/1 58/26/1 51/19/1
f 51/19/1 58/26/1 59/27/1 52/20/1
f 52/20/1 59/27/1 60/28/1 53/21/1
f 54/22/1 61/29/1 62/30/1 55/23/1
f 55/23/1 62/30/1 63/31/1 56/24/1
f 56/24/1 63/31/1 64/32/1 57/25/1
f 57/25/1 64/32/1 65/33/1 58/26/1
f 58/26/1 65/33/1 66/34/1 59/27/1
f 59/27/1 66/34/1 67/35/1 60/28/1
f 61/29/1 68/36/1 69/37/1 62/30/1
f 62/30/1 69/37/1 70/38/1 63/31/1
f 63/31/1 70/38/1 71/39/1 64/32/1
f 64/32/1 71/39/1 72/40/1 65/33/1
f 65/33/1 72/40/1 73/41/1 66/34/1
f 66/34/1 73/41/1 74/42/1 67/35/1
f 68/36/1 75/43/1 76/44/1 69/37/1
f 69/37/1 76/44/1 77/45/1 70/38/1
f 70/38/1 77/45/1 78/46/1 71/39/1
f 71/39/1 78/46/1 79/47/1 72/40/1
f 72/40/1 79/47/1 80/48/1 73/41/1
f 73/41/1 80/48/1 81/49/1 74/42/1
f 1/50/1 11/51/1 33/1/1 12/52/1
f 12/52/1 33/1/1 34/4/1 13/53/1
f 13/53/1 34/4/1 35/6/1 14/54/1
f 14/54/1 35/6/1 36/8/1 15/55/1
f 15/55/1 36/8/1 37/10/1 16/56/1
f 16/56/1 37/10/1 38/12/1 17/57/1
f 17/57/1 38/12/1 39/14/1 18/58/1
f 18/58/1 39/14/1 19/59/1 2/60/1
f 39/14/1 46/13/1 20/61/1 19/59/1
f 46/13/1 53/21/1 21/62/1 20/61/1
f 53/21/1 60/28/1 22/63/1 21/62/1
f 60/28/1 67/35/1 23/64/1 22/63/1
f 67/35/1 74/42/1 24/65/1 23/64/1
f 74/42/1 81/49/1 25/66/1 24/65/1
f 81/49/1 26/67/1 4/68/1 25/66/1
f 80/48/1 27/69/1 26/67/1 81/49/1
f 79/47/1 28/70/1 27/69/1 80/48/1
f 78/46/1 29/71/1 28/70/1 79/47/1
f 77/45/1 30/72/1 29/71/1 78/46/1
f 76/44/1 31/73/1 30/72/1 77/45/1
f 75/43/1 32/74/1 31/73/1 76/44/1
f 5/75/1 3/76/1 32/74/1 75/43/1
f 6/77/1 5/75/1 75/43/1 68/36/1
f 7/78/1 6/77/1 68/36/1 61/29/1
f 8/79/1 7/78/1 61/29/1 54/22/1
f 9/80/1 8/79/1 54/22/1 47/15/1
f 10/81/1 9/80/1 47/15/1 40/2/1
f 11/51/1 10/81/1 40/2/1 33/1/1
f 84/60/2 101/59/2 135/59/2 118/60/2
f 112/72/3 113/73/3 147/73/3 146/72/3
f 88/77/4 89/78/4 123/78/4 122/77/4
f 100/58/5 84/60/5 118/60/5 134/58/5
f 111/71/3 112/72/3 146/72/3 145/71/3
f 87/75/4 88/77/4 122/77/4 121/75/4
f 99/57/5 100/58/5 134/58/5 133/57/5
f 110/70/3 111/71/3 145/71/3 144/70/3
f 85/76/4 87/75/4 121/75/4 119/76/4
f 98/56/5 99/57/5 133/57/5 132/56/5
f 109/69/3 110/70/3 144/70/3 143/69/3
f 97/55/5 98/56/5 132/56/5 131/55/5
f 108/67/3 109/69/3 143/69/3 142/67/3
f 96/54/5 97/55/5 131/55/5 130/54/5
f 86/68/3 108/67/3 142/67/3 120/68/3
f 95/53/5 96/54/5 130/54/5 129/53/5
f 115/50/6 116/50/6 198/50/6 173/50/6
f 107/66/2 86/68/2 120/68/2 141/66/2
f 94/52/5 95/53/5 129/53/5 128/52/5
f 106/65/2 107/66/2 141/66/2 140/65/2
f 83/50/5 94/52/5 128/52/5 117/50/5
f 105/64/2 106/65/2 140/65/2 139/64/2
f 93/51/4 83/50/4 117/50/4 127/51/4
f 104/63/2 105/64/2 139/64/2 138/63/2
f 92/81/4 93/51/4 127/51/4 126/81/4
f 103/62/2 104/63/2 138/63/2 137/62/2
f 91/80/4 92/81/4 126/81/4 125/80/4
f 102/61/2 103/62/2 137/62/2 136/61/2
f 114/74/3 85/76/3 119/76/3 148/74/3
f 90/79/4 91/80/4 125/80/4 124/79/4
f 101/59/2 102/61/2 136/61/2 135/59/2
f 113/73/3 114/74/3 148/74/3 147/73/3
f 89/78/4 90/79/4 124/79/4 123/78/4
f 21/62/7 22/63/7 104/63/7 103/62/7
f 10/81/7 11/51/7 93/51/7 92/81/7
f 22/63/7 23/64/7 105/64/7 104/63/7
f 11/51/7 1/50/7 83/50/7 93/51/7
f 23/64/7 24/65/7 106/65/7 105/64/7
f 1/50/7 12/52/7 94/52/7 83/50/7
f 24/65/7 25/66/7 107/66/7 106/65/7
f 12/52/7 13/53/7 95/53/7 94/52/7
f 25/66/7 4/68/7 86/68/7 107/66/7
f 57/50/7 82/50/7 116/50/7 115/50/7
f 13/53/7 14/54/7 96/54/7 95/53/7
f 4/68/7 26/67/7 108/67/7 86/68/7
f 14/54/7 15/55/7 97/55/7 96/54/7
f 26/67/7 27/69/7 109/69/7 108/67/7
f 15/55/7 16/56/7 98/56/7 97/55/7
f 27/69/7 28/70/7 110/70/7 109/69/7
f 16/56/7 17/57/7 99/57/7 98/56/7
f 3/76/7 5/75/7 87/75/7 85/76/7
f 28/70/7 29/71/7 111/71/7 110/70/7
f 17/57/7 18/58/7 100/58/7 99/57/7
f 5/75/7 6/77/7 88/77/7 87/75/7
f 29/71/7 30/72/7 112/72/7 111/71/7
f 18/58/7 2/60/7 84/60/7 100/58/7
f 6/77/7 7/78/7 89/78/7 88/77/7
f 30/72/7 31/73/7 113/73/7 112/72/7
f 2/60/7 19/59/7 101/59/7 84/60/7
f 7/78/7 8/79/7 90/79/7 89/78/7
f 31/73/7 32/74/7 114/74/7 113/73/7
f 19/59/7 20/61/7 102/61/7 101/59/7
f 8/79/7 9/80/7 91/80/7 90/79/7
f 32/74/7 3/76/7 85/76/7 114/74/7
f 20/61/7 21/62/7 103/62/7 102/61/7
f 9/80/7 10/81/7 92/81/7 91/80/7
f 149/1/7 150/4/7 157/3/7 156/2/7
f 150/4/7 151/6/7 158/5/7 157/3/7
f 151/6/1 152/8/1 159/7/1 158/5/1
f 152/8/7 153/10/7 160/9/7 159/7/7
f 153/10/1 154/12/1 161/11/1 160/9/1
f 154/12/7 155/14/7 162/13/7 161/11/7
f 156/2/7 157/3/7 164/16/7 163/15/7
f 157/3/7 158/5/7 165/17/7 164/16/7
f 158/5/7 159/7/7 166/18/7 165/17/7
f 159/7/7 160/9/7 167/19/7 166/18/7
f 160/9/7 161/11/7 168/20/7 167/19/7
f 161/11/7 162/13/7 169/21/7 168/20/7
f 163/15/1 164/16/1 171/23/1 170/22/1
f 164/16/7 165/17/7 172/24/7 171/23/7
f 165/17/7 166/18/7 173/25/7 172/24/7
f 166/18/1 167/19/1 174/26/1 173/25/1
f 167/19/7 168/20/7 175/27/7 174/26/7
f 168/20/7 169/21/7 176/28/7 175/27/7
f 170/22/7 171/23/7 178/30/7 177/29/7
f 171/23/8 172/24/8 179/31/8 178/30/8
f 172/24/9 173/25/9 180/32/9 179/31/9
f 173/25/7 174/26/7 181/33/7 180/32/7
f 174/26/1 175/27/1 182/34/1 181/33/1
f 175/27/7 176/28/7 183/35/7 182/34/7
f 177/29/1 178/30/1 185/37/1 184/36/1
f 178/30/7 179/31/7 186/38/7 185/37/7
f 179/31/7 180/32/7 187/39/7 186/38/7
f 180/32/1 181/33/1 188/40/1 187/39/1
f 181/33/7 182/34/7 189/41/7 188/40/7
f 182/34/7 183/35/7 190/42/7 189/41/7
f 184/36/7 185/37/7 192/44/7 191/43/7
f 185/37/7 186/38/7 193/45/7 192/44/7
f 186/38/7 187/39/7 194/46/7 193/45/7
f 187/39/7 188/40/7 195/47/7 194/46/7
f 188/40/7 189/41/7 196/48/7 195/47/7
f 189/41/7 190/42/7 197/49/7 196/48/7
f 117/50/7 128/52/7 149/1/7 127/51/7
f 128/52/7 129/53/7 150/4/7 149/1/7
f 129/53/7 130/54/7 151/6/7 150/4/7
f 130/54/7 131/55/7 152/8/7 151/6/7
f 131/55/7 132/56/7 153/10/7 152/8/7
f 132/56/7 133/57/7 154/12/7 153/10/7
f 133/57/7 134/58/7 155/14/7 154/12/7
f 134/58/7 118/60/7 135/59/7 155/14/7
f 155/14/7 135/59/7 136/61/7 162/13/7
f 162/13/7 136/61/7 137/62/7 169/21/7
f 169/21/1 137/62/1 138/63/1 176/28/1
f 176/28/7 138/63/7 139/64/7 183/35/7
f 183/35/1 139/64/1 140/65/1 190/42/1
f 190/42/7 140/65/7 141/66/7 197/49/7
f 197/49/7 141/66/7 120/68/7 142/67/7
f 196/48/7 197/49/7 142/67/7 143/69/7
f 195/47/1 196/48/1 143/69/1 144/70/1
f 194/46/7 195/47/7 144/70/7 145/71/7
f 193/45/1 194/46/1 145/71/1 146/72/1
f 192/44/7 193/45/7 146/72/7 147/73/7
f 191/43/7 192/44/7 147/73/7 148/74/7
f 121/75/7 191/43/7 148/74/7 119/76/7
f 122/77/7 184/36/7 191/43/7 121/75/7
f 123/78/7 177/29/7 184/36/7 122/77/7
f 124/79/7 170/22/7 177/29/7 123/78/7
f 125/80/7 163/15/7 170/22/7 124/79/7
f 126/81/7 156/2/7 163/15/7 125/80/7
f 127/51/7 149/1/7 156/2/7 126/81/7
